<svg height="342" version="1.1" width="291" xmlns="http://www.w3.org/2000/svg"
     style="overflow: hidden; position: relative;">
  <desc style="-webkit-tap-highlight-color: rgba(0, 0, 0, 0);">Created with Raphaël 2.1.0</desc>
  <defs style="-webkit-tap-highlight-color: rgba(0, 0, 0, 0);"></defs>
  <path fill="none" stroke="#0b62a4"
        d="M145.5,261.3333333333333A90.33333333333333,90.33333333333333,0,1,0,55.27161127647099,175.35304255284197"
        stroke-width="2" opacity="1" style="-webkit-tap-highlight-color: rgba(0, 0, 0, 0); opacity: 1;"></path>
  <path fill="#0b62a4" stroke="#ffffff"
        d="M145.5,264.3333333333333A93.33333333333333,93.33333333333333,0,1,0,52.275096521815044,175.49760854168173L10.157416914706488,177.52956382926294A135.5,135.5,0,1,1,145.5,306.5Z"
        stroke-width="3" style="-webkit-tap-highlight-color: rgba(0, 0, 0, 0);"></path>
  <path fill="none" stroke="#3980b5"
        d="M55.27161127647099,175.35304255284197A90.33333333333333,90.33333333333333,0,0,0,55.65061192243225,180.33801762676302"
        stroke-width="2" opacity="0" style="-webkit-tap-highlight-color: rgba(0, 0, 0, 0); opacity: 0;"></path>
  <path fill="#3980b5" stroke="#ffffff"
        d="M52.275096521815044,175.49760854168173A93.33333333333333,93.33333333333333,0,0,0,52.66668390509605,180.6481362933345L15.699131245875378,184.49016199585878A130.5,130.5,0,0,1,15.151608172466382,177.28862051453Z"
        stroke-width="3" style="-webkit-tap-highlight-color: rgba(0, 0, 0, 0);"></path>
  <path fill="none" stroke="#679dc6"
        d="M55.65061192243225,180.33801762676302A90.33333333333333,90.33333333333333,0,0,0,145.4716209468295,261.3333288755621"
        stroke-width="2" opacity="0" style="-webkit-tap-highlight-color: rgba(0, 0, 0, 0); opacity: 0;"></path>
  <path fill="#679dc6" stroke="#ffffff"
        d="M52.66668390509605,180.6481362933345A93.33333333333333,93.33333333333333,0,0,0,145.47067846904892,264.333328727518L145.45900221654517,301.4999935600832A130.5,130.5,0,0,1,15.699131245875378,184.49016199585878Z"
        stroke-width="3" style="-webkit-tap-highlight-color: rgba(0, 0, 0, 0);"></path>
  <text x="145.5" y="161" text-anchor="middle" font="10px &quot;Arial&quot;" stroke="none" fill="#000000"
        style="-webkit-tap-highlight-color: rgba(0, 0, 0, 0); text-anchor: middle; font: 800 15px Arial;"
        font-size="15px" font-weight="800" transform="matrix(1.7107,0,0,1.7107,-103.4119,-120.4696)"
        stroke-width="0.584544126691267">
    <tspan style="-webkit-tap-highlight-color: rgba(0, 0, 0, 0);" dy="5.5">OCR process</tspan>
  </text>
  <text x="145.5" y="181" text-anchor="middle" font="10px &quot;Arial&quot;" stroke="none" fill="#000000"
        style="-webkit-tap-highlight-color: rgba(0, 0, 0, 0); text-anchor: middle; font: 14px Arial;" font-size="14px"
        transform="matrix(1.8819,0,0,1.8819,-128.4146,-152.5764)" stroke-width="0.5313653136531366">
    <tspan style="-webkit-tap-highlight-color: rgba(0, 0, 0, 0);" dy="5">10</tspan>
  </text>
</svg>
